<?xml version="1.0" encoding="UTF-8" standalone="no" ?>
<!DOCTYPE svg PUBLIC "-//W3C//DTD SVG 1.1//EN" "http://www.w3.org/Graphics/SVG/1.1/DTD/svg11.dtd">
<svg xmlns="http://www.w3.org/2000/svg" xmlns:xlink="http://www.w3.org/1999/xlink" version="1.1" width="350" height="350" viewBox="0 0 350 350" xml:space="preserve">
<desc>Created with Fabric.js 1.7.22</desc>
<defs>
</defs>
<g id="icon" style="stroke: none; stroke-width: 1; stroke-dasharray: none; stroke-linecap: butt; stroke-linejoin: miter; stroke-miterlimit: 10; fill: none; fill-rule: nonzero; opacity: 1;" transform="translate(-1.9444444444444287 -1.9444444444444287) scale(3.89 3.89)" >
	<path d="M 12.971 66.258 H 5.615 C 3.066 66.258 1 64.192 1 61.643 V 20.279 c 0 -2.549 2.066 -4.615 4.615 -4.615 h 50.854 c 2.549 0 4.615 2.066 4.615 4.615 v 45.979 H 29.127" style="stroke: none; stroke-width: 1; stroke-dasharray: none; stroke-linecap: butt; stroke-linejoin: miter; stroke-miterlimit: 10; fill: rgb(255,209,92); fill-rule: nonzero; opacity: 1;" transform=" matrix(1 0 0 1 0 0) " stroke-linecap="round" />
	<path d="M 62.084 67.258 H 29.126 v -2 h 30.958 V 20.279 c 0 -1.994 -1.622 -3.615 -3.615 -3.615 H 5.615 C 3.622 16.664 2 18.286 2 20.279 v 41.363 c 0 1.993 1.622 3.615 3.615 3.615 h 7.355 v 2 H 5.615 C 2.519 67.258 0 64.739 0 61.643 V 20.279 c 0 -3.096 2.519 -5.615 5.615 -5.615 h 50.854 c 3.097 0 5.615 2.519 5.615 5.615 V 67.258 z" style="stroke: none; stroke-width: 1; stroke-dasharray: none; stroke-linecap: butt; stroke-linejoin: miter; stroke-miterlimit: 10; fill: rgb(32,48,62); fill-rule: nonzero; opacity: 1;" transform=" matrix(1 0 0 1 0 0) " stroke-linecap="round" />
	<path d="M 82.402 66.258 h 1.452 c 2.842 0 5.146 -2.304 5.146 -5.146 V 38.104 c 0 -3.452 -1.574 -6.715 -4.276 -8.864 l -6.587 -5.239 c -2.004 -1.594 -4.49 -2.462 -7.05 -2.462 H 61.084 v 44.719 h 5.162" style="stroke: none; stroke-width: 1; stroke-dasharray: none; stroke-linecap: butt; stroke-linejoin: miter; stroke-miterlimit: 10; fill: rgb(255,112,88); fill-rule: nonzero; opacity: 1;" transform=" matrix(1 0 0 1 0 0) " stroke-linecap="round" />
	<circle cx="21.048000000000002" cy="66.258" r="8.078" style="stroke: none; stroke-width: 1; stroke-dasharray: none; stroke-linecap: butt; stroke-linejoin: miter; stroke-miterlimit: 10; fill: rgb(64,89,107); fill-rule: nonzero; opacity: 1;" transform="  matrix(1 0 0 1 0 0) "/>
	<circle cx="74.328" cy="66.258" r="8.078" style="stroke: none; stroke-width: 1; stroke-dasharray: none; stroke-linecap: butt; stroke-linejoin: miter; stroke-miterlimit: 10; fill: rgb(64,89,107); fill-rule: nonzero; opacity: 1;" transform="  matrix(1 0 0 1 0 0) "/>
	<path d="M 83.854 67.258 h -1.452 v -2 h 1.452 c 2.286 0 4.146 -1.859 4.146 -4.146 V 38.104 c 0 -3.165 -1.421 -6.111 -3.898 -8.082 l -6.586 -5.239 c -1.82 -1.447 -4.104 -2.245 -6.429 -2.245 h -9.003 v 42.719 h 4.162 v 2 h -6.162 V 20.539 h 11.003 c 2.775 0 5.5 0.952 7.673 2.679 l 6.587 5.239 C 88.304 30.81 90 34.326 90 38.104 v 23.008 C 90 64.501 87.243 67.258 83.854 67.258 z" style="stroke: none; stroke-width: 1; stroke-dasharray: none; stroke-linecap: butt; stroke-linejoin: miter; stroke-miterlimit: 10; fill: rgb(32,48,62); fill-rule: nonzero; opacity: 1;" transform=" matrix(1 0 0 1 0 0) " stroke-linecap="round" />
	<path d="M 21.049 75.336 c -5.006 0 -9.078 -4.072 -9.078 -9.078 s 4.072 -9.078 9.078 -9.078 c 5.005 0 9.078 4.072 9.078 9.078 S 26.054 75.336 21.049 75.336 z M 21.049 59.18 c -3.903 0 -7.078 3.175 -7.078 7.078 s 3.175 7.078 7.078 7.078 s 7.078 -3.175 7.078 -7.078 S 24.952 59.18 21.049 59.18 z" style="stroke: none; stroke-width: 1; stroke-dasharray: none; stroke-linecap: butt; stroke-linejoin: miter; stroke-miterlimit: 10; fill: rgb(32,48,62); fill-rule: nonzero; opacity: 1;" transform=" matrix(1 0 0 1 0 0) " stroke-linecap="round" />
	<path d="M 74.324 75.336 c -5.006 0 -9.078 -4.072 -9.078 -9.078 s 4.072 -9.078 9.078 -9.078 s 9.078 4.072 9.078 9.078 S 79.33 75.336 74.324 75.336 z M 74.324 59.18 c -3.903 0 -7.078 3.175 -7.078 7.078 s 3.175 7.078 7.078 7.078 s 7.078 -3.175 7.078 -7.078 S 78.228 59.18 74.324 59.18 z" style="stroke: none; stroke-width: 1; stroke-dasharray: none; stroke-linecap: butt; stroke-linejoin: miter; stroke-miterlimit: 10; fill: rgb(32,48,62); fill-rule: nonzero; opacity: 1;" transform=" matrix(1 0 0 1 0 0) " stroke-linecap="round" />
	<rect x="15.59" y="50.01" rx="0" ry="0" width="45.49" height="2" style="stroke: none; stroke-width: 1; stroke-dasharray: none; stroke-linecap: butt; stroke-linejoin: miter; stroke-miterlimit: 10; fill: rgb(32,48,62); fill-rule: nonzero; opacity: 1;" transform=" matrix(1 0 0 1 0 0) "/>
	<rect x="78.16" y="50.01" rx="0" ry="0" width="10.84" height="2" style="stroke: none; stroke-width: 1; stroke-dasharray: none; stroke-linecap: butt; stroke-linejoin: miter; stroke-miterlimit: 10; fill: rgb(32,48,62); fill-rule: nonzero; opacity: 1;" transform=" matrix(1 0 0 1 0 0) "/>
	<rect x="1" y="50.01" rx="0" ry="0" width="6.6" height="2" style="stroke: none; stroke-width: 1; stroke-dasharray: none; stroke-linecap: butt; stroke-linejoin: miter; stroke-miterlimit: 10; fill: rgb(32,48,62); fill-rule: nonzero; opacity: 1;" transform=" matrix(1 0 0 1 0 0) "/>
	<circle cx="21.049" cy="66.259" r="2.049" style="stroke: none; stroke-width: 1; stroke-dasharray: none; stroke-linecap: butt; stroke-linejoin: miter; stroke-miterlimit: 10; fill: rgb(32,48,62); fill-rule: nonzero; opacity: 1;" transform="  matrix(1 0 0 1 0 0) "/>
	<circle cx="74.319" cy="66.259" r="2.049" style="stroke: none; stroke-width: 1; stroke-dasharray: none; stroke-linecap: butt; stroke-linejoin: miter; stroke-miterlimit: 10; fill: rgb(32,48,62); fill-rule: nonzero; opacity: 1;" transform="  matrix(1 0 0 1 0 0) "/>
	<path d="M 9.964 30.716 h -2 v -5.044 c 0 -1.753 1.426 -3.18 3.18 -3.18 h 5.124 v 2 h -5.124 c -0.65 0 -1.18 0.529 -1.18 1.18 V 30.716 z" style="stroke: none; stroke-width: 1; stroke-dasharray: none; stroke-linecap: butt; stroke-linejoin: miter; stroke-miterlimit: 10; fill: rgb(32,48,62); fill-rule: nonzero; opacity: 1;" transform=" matrix(1 0 0 1 0 0) " stroke-linecap="round" />
	<path d="M 84.724 29.24 l -6.587 -5.239 c -2.004 -1.594 -4.49 -2.462 -7.05 -2.462 h -0.941 v 19.658 c 0 1.645 1.334 2.979 2.979 2.979 H 89 v -6.071 C 89 34.652 87.426 31.389 84.724 29.24 z" style="stroke: none; stroke-width: 1; stroke-dasharray: none; stroke-linecap: butt; stroke-linejoin: miter; stroke-miterlimit: 10; fill: rgb(242,242,242); fill-rule: nonzero; opacity: 1;" transform=" matrix(1 0 0 1 0 0) " stroke-linecap="round" />
	<path d="M 90 45.176 H 73.125 c -2.194 0 -3.979 -1.785 -3.979 -3.979 V 20.539 h 1.941 c 2.775 0 5.5 0.952 7.673 2.679 l 6.588 5.239 C 88.304 30.81 90 34.326 90 38.104 V 45.176 z M 71.146 22.539 v 18.657 c 0 1.091 0.888 1.979 1.979 1.979 H 88 v -5.072 c 0 -3.165 -1.421 -6.111 -3.898 -8.082 l -6.586 -5.239 C 75.71 23.349 73.45 22.553 71.146 22.539 z" style="stroke: none; stroke-width: 1; stroke-dasharray: none; stroke-linecap: butt; stroke-linejoin: miter; stroke-miterlimit: 10; fill: rgb(32,48,62); fill-rule: nonzero; opacity: 1;" transform=" matrix(1 0 0 1 0 0) " stroke-linecap="round" />
</g>
</svg>